<svg xmlns="http://www.w3.org/2000/svg" version="1.1" xmlns:xlink="http://www.w3.org/1999/xlink" xmlns:svgjs="http://svgjs.dev/svgjs" width="1500" height="1500" viewBox="0 0 1500 1500"><rect width="1500" height="1500" fill="#000000"></rect><g transform="matrix(0.6666666666666666,0,0,0.6666666666666666,249.39393939393938,597.6626353499739)"><svg viewBox="0 0 396 121" data-background-color="#000000" preserveAspectRatio="xMidYMid meet" height="458" width="1500" xmlns="http://www.w3.org/2000/svg" xmlns:xlink="http://www.w3.org/1999/xlink"><g id="tight-bounds" transform="matrix(1,0,0,1,0.2400000000000091,-0.13049850659442086)"><svg viewBox="0 0 395.52 121.26099701318886" height="121.26099701318886" width="395.52"><g><svg viewBox="0 0 616.9953923051265 189.16230891854582" height="121.26099701318886" width="395.52"><g transform="matrix(1,0,0,1,0,26.143271348366326)"><svg viewBox="0 0 395.52 136.87576622181317" height="136.87576622181317" width="395.52"><g id="textblocktransform"><svg viewBox="0 0 395.52 136.87576622181317" height="136.87576622181317" width="395.52" id="textblock"><g><svg viewBox="0 0 395.52 136.87576622181317" height="136.87576622181317" width="395.52"><g transform="matrix(1,0,0,1,0,0)"><svg width="395.52" viewBox="0.93 -32.42 106.08999999999999 36.72" height="136.87576622181317" data-palette-color="url(#eef13e39-a8d1-4d43-9eac-9b54b81f0a09)"></svg></g></svg></g></svg></g></svg></g><g transform="matrix(1,0,0,1,427.83308338658077,0)"><svg viewBox="0 0 189.16230891854582 189.16230891854582" height="189.16230891854582" width="189.16230891854582"><g data-palette-color="url(#4d5d2943-64f3-446d-974d-c3ac2ab1c3ca)"></g></svg></g></svg></g><defs></defs><mask id="7357ef1e-6d17-49a4-8dcb-fad253ca6c59"><g id="SvgjsG6340"><svg viewBox="0 0 395.52 121.26099701318886" height="121.26099701318886" width="395.52"><g><svg viewBox="0 0 616.9953923051265 189.16230891854582" height="121.26099701318886" width="395.52"><g transform="matrix(1,0,0,1,0,26.143271348366326)"><svg viewBox="0 0 395.52 136.87576622181317" height="136.87576622181317" width="395.52"><g id="SvgjsG6339"><svg viewBox="0 0 395.52 136.87576622181317" height="136.87576622181317" width="395.52" id="SvgjsSvg6338"><g><svg viewBox="0 0 395.52 136.87576622181317" height="136.87576622181317" width="395.52"><g transform="matrix(1,0,0,1,0,0)"><svg width="395.52" viewBox="0.93 -32.42 106.08999999999999 36.72" height="136.87576622181317" data-palette-color="url(#eef13e39-a8d1-4d43-9eac-9b54b81f0a09)"><path d="M25.29 4.3L23.44-3.22Q21.53-2.25 20.07-1.66 18.6-1.07 17.24-0.76 15.87-0.44 14.48-0.34 13.09-0.24 11.28-0.24L11.28-0.24Q8.89-0.24 6.98-0.81 5.08-1.37 3.74-2.51 2.39-3.66 1.66-5.44 0.93-7.23 0.93-9.77L0.93-9.77Q0.93-12.06 1.39-14.6 1.86-17.14 2.76-19.65 3.66-22.17 5-24.49 6.35-26.81 8.15-28.56 9.96-30.32 12.21-31.37 14.45-32.42 17.19-32.42L17.19-32.42Q18.21-32.42 19.63-32.2 21.04-31.98 22.34-31.47 23.63-30.96 24.51-30 25.39-29.05 25.39-27.59L25.39-27.59Q25.39-27.05 24.88-27.08 24.37-27.1 23.61-27.44 22.85-27.78 21.9-28.32 20.95-28.86 20.07-29.35 19.19-29.83 18.46-30.18 17.72-30.52 17.33-30.42L17.33-30.42Q14.99-30.42 13.09-29.52 11.18-28.61 9.64-27.1 8.11-25.59 6.96-23.61 5.81-21.63 5.05-19.48 4.3-17.33 3.93-15.21 3.56-13.09 3.56-11.18L3.56-11.18Q3.22-8.89 3.83-7.2 4.44-5.52 5.66-4.42 6.88-3.32 8.59-2.78 10.3-2.25 12.13-2.17 13.96-2.1 15.77-2.51 17.58-2.93 19.07-3.76 20.56-4.59 21.51-5.81 22.46-7.03 22.61-8.54L22.61-8.54Q22.61-10.11 22-11.18 21.39-12.26 20.39-12.99 19.38-13.72 18.09-14.16 16.8-14.6 15.45-14.84 14.11-15.09 12.77-15.19 11.43-15.28 10.3-15.43L10.3-15.43 10.3-16.31Q10.3-16.41 11.6-16.65 12.89-16.89 14.67-17.19 16.46-17.48 18.36-17.77 20.26-18.07 21.58-18.21L21.58-18.21Q21.58-18.21 21.83-18.24 22.07-18.26 22.36-18.26 22.66-18.26 22.95-18.26 23.24-18.26 23.44-18.26L23.44-18.26Q23.54-18.26 23.8-18.26 24.07-18.26 24.37-18.26 24.66-18.26 24.93-18.24 25.2-18.21 25.29-18.21L25.29-18.21Q25.34-17.53 25.42-16.04 25.49-14.55 25.59-12.72 25.68-10.89 25.78-8.84 25.88-6.79 25.98-4.96 26.07-3.13 26.15-1.66 26.22-0.2 26.27 0.54L26.27 0.54Q26.27 0.73 26.27 1.27 26.27 1.81 26.29 2.42 26.32 3.03 26.32 3.54 26.32 4.05 26.32 4.3L26.32 4.3 25.29 4.3ZM20.61-15.43L23.44-13.53 23.44-16.5Q22.71-16.5 21.92-16.14 21.14-15.77 20.61-15.43L20.61-15.43ZM28.61-8.94L28.61-8.94Q28.61-10.06 28.81-11.55 29-13.04 29.44-14.55 29.88-16.06 30.54-17.53 31.2-18.99 32.13-20.14 33.05-21.29 34.27-22 35.5-22.71 37.01-22.71L37.01-22.71Q38.57-22.71 39.91-21.63 41.26-20.56 42.21-18.85 43.16-17.14 43.65-15.04 44.14-12.94 44.04-10.94L44.04-10.94Q44.04-8.01 42.92-5.71 41.79-3.42 40.06-2 38.33-0.59 36.35-0.1 34.37 0.39 32.64-0.37 30.91-1.12 29.76-3.22 28.61-5.32 28.61-8.94ZM30.42-8.74L30.42-8.74Q30.56-5.76 31.44-4.15 32.32-2.54 33.57-2.03 34.81-1.51 36.28-2 37.74-2.49 39.01-3.74 40.28-4.98 41.18-6.86 42.09-8.74 42.19-11.08L42.19-11.08Q42.28-12.84 41.92-14.5 41.55-16.16 40.89-17.46 40.23-18.75 39.28-19.51 38.33-20.26 37.11-20.26L37.11-20.26Q35.94-20.26 35.01-19.68 34.08-19.09 33.32-18.09 32.57-17.09 32.03-15.82 31.49-14.55 31.13-13.28 30.76-12.01 30.59-10.82 30.42-9.62 30.42-8.74ZM49.26-1.86L47.41-24.37Q47.31-24.46 47.16-24.71 47.02-24.95 46.87-25.27 46.72-25.59 46.6-25.85 46.48-26.12 46.48-26.27L46.48-26.27Q46.48-26.71 46.87-26.95 47.26-27.2 47.75-27.25 48.24-27.29 48.7-27.29 49.16-27.29 49.26-27.29L49.26-27.29Q49.41-27.29 49.68-27.27 49.95-27.25 50.26-27.22 50.58-27.2 50.83-27.17 51.07-27.15 51.17-27.15L51.17-27.15Q52.78-26.56 54.85-25.78 56.93-25 59.13-23.97 61.32-22.95 63.42-21.66 65.52-20.36 67.18-18.73 68.84-17.09 69.87-15.14 70.89-13.18 70.89-10.79L70.89-10.79Q70.89-8.74 70.11-7.1 69.33-5.47 68.04-4.27 66.74-3.08 65.03-2.22 63.33-1.37 61.54-0.85 59.76-0.34 57.95-0.1 56.15 0.15 54.58 0.15L54.58 0.15Q54.24 0.15 53.41 0.12 52.58 0.1 51.7 0.05 50.83 0 50.12-0.02 49.41-0.05 49.36-0.05L49.36-0.05 49.26-1.86ZM50.19-24.61L50.19-24.61Q50.19-24.51 50.19-24.22 50.19-23.93 50.21-23.56 50.24-23.19 50.24-22.9 50.24-22.61 50.24-22.46L50.24-22.46Q50.29-21.73 50.36-20.12 50.43-18.51 50.51-16.46 50.58-14.4 50.7-12.18 50.83-9.96 50.92-7.93 51.02-5.91 51.09-4.27 51.17-2.64 51.17-1.86L51.17-1.86Q51.46-1.86 52.12-1.83 52.78-1.81 53.51-1.78 54.24-1.76 54.9-1.73 55.56-1.71 55.85-1.71L55.85-1.71Q58.1-1.71 60.3-2.27 62.5-2.83 64.23-3.98 65.96-5.13 67.06-6.96 68.16-8.79 68.16-11.38L68.16-11.38Q68.16-13.28 67.28-15.01 66.4-16.75 64.96-18.21 63.52-19.68 61.66-20.85 59.81-22.02 57.83-22.88 55.85-23.73 53.88-24.17 51.9-24.61 50.19-24.61ZM72.99-8.94L72.99-8.94Q72.99-10.06 73.19-11.55 73.38-13.04 73.82-14.55 74.26-16.06 74.92-17.53 75.58-18.99 76.51-20.14 77.43-21.29 78.65-22 79.88-22.71 81.39-22.71L81.39-22.71Q82.95-22.71 84.29-21.63 85.64-20.56 86.59-18.85 87.54-17.14 88.03-15.04 88.52-12.94 88.42-10.94L88.42-10.94Q88.42-8.01 87.3-5.71 86.17-3.42 84.44-2 82.71-0.59 80.73-0.1 78.75 0.39 77.02-0.37 75.29-1.12 74.14-3.22 72.99-5.32 72.99-8.94ZM74.8-8.74L74.8-8.74Q74.94-5.76 75.82-4.15 76.7-2.54 77.95-2.03 79.19-1.51 80.66-2 82.12-2.49 83.39-3.74 84.66-4.98 85.56-6.86 86.47-8.74 86.56-11.08L86.56-11.08Q86.66-12.84 86.3-14.5 85.93-16.16 85.27-17.46 84.61-18.75 83.66-19.51 82.71-20.26 81.49-20.26L81.49-20.26Q80.31-20.26 79.39-19.68 78.46-19.09 77.7-18.09 76.95-17.09 76.41-15.82 75.87-14.55 75.51-13.28 75.14-12.01 74.97-10.82 74.8-9.62 74.8-8.74ZM90.86-8.35L90.86-8.35Q90.86-10.16 91.45-12.35 92.03-14.55 93.15-16.43 94.28-18.31 95.94-19.58 97.6-20.85 99.79-20.85L99.79-20.85Q100.92-21 101.6-20.63 102.28-20.26 102.65-19.48 103.02-18.7 103.14-17.7 103.26-16.7 103.29-15.65 103.31-14.6 103.29-13.7 103.26-12.79 103.36-12.21L103.36-12.21 102.14-12.21Q102.09-12.5 101.97-13.6 101.85-14.7 101.55-15.87 101.26-17.04 100.75-17.97 100.23-18.9 99.31-18.9L99.31-18.9Q97.94-18.9 96.74-17.82 95.55-16.75 94.67-15.23 93.79-13.72 93.25-12.11 92.71-10.5 92.71-9.42L92.71-9.42Q92.76-8.2 93.06-6.76 93.35-5.32 94.01-4.15 94.67-2.98 95.74-2.25 96.82-1.51 98.38-1.81L98.38-1.81Q99.55-1.81 100.62-2.29 101.7-2.78 102.72-3.32 103.75-3.86 104.8-4.35 105.85-4.83 107.02-4.83L107.02-4.83Q107.02-3.56 106.09-2.61 105.17-1.66 103.82-1.07 102.48-0.49 100.99-0.2 99.5 0.1 98.48 0.1L98.48 0.1Q96.82 0.1 95.42-0.59 94.03-1.27 93.01-2.42 91.98-3.56 91.42-5.1 90.86-6.64 90.86-8.35Z" opacity="1" transform="matrix(1,0,0,1,0,0)" fill="white" class="wordmark-text-0" id="SvgjsPath6337"></path></svg></g></svg></g></svg></g></svg></g><g transform="matrix(1,0,0,1,427.83308338658077,0)"><svg viewBox="0 0 189.16230891854582 189.16230891854582" height="189.16230891854582" width="189.16230891854582"><g data-palette-color="url(#4d5d2943-64f3-446d-974d-c3ac2ab1c3ca)"><rect width="51.704364437735855" height="189.16230891854582" fill="black" stroke="transparent" x="0" fill-opacity="1"></rect><rect width="51.704364437735855" height="189.16230891854582" fill="black" stroke="transparent" x="63.054102972848604" fill-opacity="0.75"></rect><rect width="51.704364437735855" height="189.16230891854582" fill="black" stroke="transparent" x="126.10820594569721" fill-opacity="0.5"></rect></g></svg></g></svg></g><defs><mask></mask></defs></svg><rect width="395.52" height="121.26099701318886" fill="black" stroke="none" visibility="hidden"></rect></g></mask><linearGradient x1="0" x2="1" y1="0.548" y2="0.55" id="eef13e39-a8d1-4d43-9eac-9b54b81f0a09"><stop stop-color="#ff6cab" offset="0"></stop><stop stop-color="#7366ff" offset="1"></stop></linearGradient><rect width="395.52" height="121.26099701318886" fill="#ffffff" mask="url(#7357ef1e-6d17-49a4-8dcb-fad253ca6c59)" data-fill-palette-color="primary"></rect><mask id="7f2ea082-0268-4901-9b9d-07be79926f8e"><g id="SvgjsG6355"><svg viewBox="0 0 395.52 121.26099701318886" height="121.26099701318886" width="395.52"><g><svg viewBox="0 0 616.9953923051265 189.16230891854582" height="121.26099701318886" width="395.52"><g transform="matrix(1,0,0,1,0,26.143271348366326)"><svg viewBox="0 0 395.52 136.87576622181317" height="136.87576622181317" width="395.52"><g id="SvgjsG6354"><svg viewBox="0 0 395.52 136.87576622181317" height="136.87576622181317" width="395.52" id="SvgjsSvg6353"><g><svg viewBox="0 0 395.52 136.87576622181317" height="136.87576622181317" width="395.52"><g transform="matrix(1,0,0,1,0,0)"><svg width="395.52" viewBox="0.93 -32.42 106.08999999999999 36.72" height="136.87576622181317" data-palette-color="url(#eef13e39-a8d1-4d43-9eac-9b54b81f0a09)"></svg></g></svg></g></svg></g></svg></g><g transform="matrix(1,0,0,1,427.83308338658077,0)"><svg viewBox="0 0 189.16230891854582 189.16230891854582" height="189.16230891854582" width="189.16230891854582"><g data-palette-color="url(#4d5d2943-64f3-446d-974d-c3ac2ab1c3ca)"><rect width="51.704364437735855" height="189.16230891854582" fill="white" stroke="transparent" x="0" fill-opacity="1"></rect><rect width="51.704364437735855" height="189.16230891854582" fill="white" stroke="transparent" x="63.054102972848604" fill-opacity="0.75"></rect><rect width="51.704364437735855" height="189.16230891854582" fill="white" stroke="transparent" x="126.10820594569721" fill-opacity="0.5"></rect></g></svg></g></svg></g><defs><mask></mask></defs><mask><g id="SvgjsG6352"><svg viewBox="0 0 395.52 121.26099701318886" height="121.26099701318886" width="395.52"><g><svg viewBox="0 0 616.9953923051265 189.16230891854582" height="121.26099701318886" width="395.52"><g transform="matrix(1,0,0,1,0,26.143271348366326)"><svg viewBox="0 0 395.52 136.87576622181317" height="136.87576622181317" width="395.52"><g id="SvgjsG6351"><svg viewBox="0 0 395.52 136.87576622181317" height="136.87576622181317" width="395.52" id="SvgjsSvg6350"><g><svg viewBox="0 0 395.52 136.87576622181317" height="136.87576622181317" width="395.52"><g transform="matrix(1,0,0,1,0,0)"><svg width="395.52" viewBox="0.93 -32.42 106.08999999999999 36.72" height="136.87576622181317" data-palette-color="url(#eef13e39-a8d1-4d43-9eac-9b54b81f0a09)"><path d="M25.29 4.3L23.44-3.22Q21.53-2.25 20.07-1.66 18.6-1.07 17.24-0.76 15.87-0.44 14.48-0.34 13.09-0.24 11.28-0.24L11.28-0.24Q8.89-0.24 6.98-0.81 5.08-1.37 3.74-2.51 2.39-3.66 1.66-5.44 0.93-7.23 0.93-9.77L0.93-9.77Q0.93-12.06 1.39-14.6 1.86-17.14 2.76-19.65 3.66-22.17 5-24.49 6.35-26.81 8.15-28.56 9.96-30.32 12.21-31.37 14.45-32.42 17.19-32.42L17.19-32.42Q18.21-32.42 19.63-32.2 21.04-31.98 22.34-31.47 23.63-30.96 24.51-30 25.39-29.05 25.39-27.59L25.39-27.59Q25.39-27.05 24.88-27.08 24.37-27.1 23.61-27.44 22.85-27.78 21.9-28.32 20.95-28.86 20.07-29.35 19.19-29.83 18.46-30.18 17.72-30.52 17.33-30.42L17.33-30.42Q14.99-30.42 13.09-29.52 11.18-28.61 9.64-27.1 8.11-25.59 6.96-23.61 5.81-21.63 5.05-19.48 4.3-17.33 3.93-15.21 3.56-13.09 3.56-11.18L3.56-11.18Q3.22-8.89 3.83-7.2 4.44-5.52 5.66-4.42 6.88-3.32 8.59-2.78 10.3-2.25 12.13-2.17 13.96-2.1 15.77-2.51 17.58-2.93 19.07-3.76 20.56-4.59 21.51-5.81 22.46-7.03 22.61-8.54L22.61-8.54Q22.61-10.11 22-11.18 21.39-12.26 20.39-12.99 19.38-13.72 18.09-14.16 16.8-14.6 15.45-14.84 14.11-15.09 12.77-15.19 11.43-15.28 10.3-15.43L10.3-15.43 10.3-16.31Q10.3-16.41 11.6-16.65 12.89-16.89 14.67-17.19 16.46-17.48 18.36-17.77 20.26-18.07 21.58-18.21L21.58-18.21Q21.58-18.21 21.83-18.24 22.07-18.26 22.36-18.26 22.66-18.26 22.95-18.26 23.24-18.26 23.44-18.26L23.44-18.26Q23.54-18.26 23.8-18.26 24.07-18.26 24.37-18.26 24.66-18.26 24.93-18.24 25.2-18.21 25.29-18.21L25.29-18.21Q25.34-17.53 25.42-16.04 25.49-14.55 25.59-12.72 25.68-10.89 25.78-8.84 25.88-6.79 25.98-4.96 26.07-3.13 26.15-1.66 26.22-0.2 26.27 0.54L26.27 0.54Q26.27 0.73 26.27 1.27 26.27 1.81 26.29 2.42 26.32 3.03 26.32 3.54 26.32 4.05 26.32 4.3L26.32 4.3 25.29 4.3ZM20.61-15.43L23.44-13.53 23.44-16.5Q22.71-16.5 21.92-16.14 21.14-15.77 20.61-15.43L20.61-15.43ZM28.61-8.94L28.61-8.94Q28.61-10.06 28.81-11.55 29-13.04 29.44-14.55 29.88-16.06 30.54-17.53 31.2-18.99 32.13-20.14 33.05-21.29 34.27-22 35.5-22.71 37.01-22.71L37.01-22.71Q38.57-22.71 39.91-21.63 41.26-20.56 42.21-18.85 43.16-17.14 43.65-15.04 44.14-12.94 44.04-10.94L44.04-10.94Q44.04-8.01 42.92-5.71 41.79-3.42 40.06-2 38.33-0.59 36.35-0.1 34.37 0.39 32.64-0.37 30.91-1.12 29.76-3.22 28.61-5.32 28.61-8.94ZM30.42-8.74L30.42-8.74Q30.56-5.76 31.44-4.15 32.32-2.54 33.57-2.03 34.81-1.51 36.28-2 37.74-2.49 39.01-3.74 40.28-4.98 41.18-6.86 42.09-8.74 42.19-11.08L42.19-11.08Q42.28-12.84 41.92-14.5 41.55-16.16 40.89-17.46 40.23-18.75 39.28-19.51 38.33-20.26 37.11-20.26L37.11-20.26Q35.94-20.26 35.01-19.68 34.08-19.09 33.32-18.09 32.57-17.09 32.03-15.82 31.49-14.55 31.13-13.28 30.76-12.01 30.59-10.82 30.42-9.62 30.42-8.74ZM49.26-1.86L47.41-24.37Q47.31-24.46 47.16-24.71 47.02-24.95 46.87-25.27 46.72-25.59 46.6-25.85 46.48-26.12 46.48-26.27L46.48-26.27Q46.48-26.71 46.87-26.95 47.26-27.2 47.75-27.25 48.24-27.29 48.7-27.29 49.16-27.29 49.26-27.29L49.26-27.29Q49.41-27.29 49.68-27.27 49.95-27.25 50.26-27.22 50.58-27.2 50.83-27.17 51.07-27.15 51.17-27.15L51.17-27.15Q52.78-26.56 54.85-25.78 56.93-25 59.13-23.97 61.32-22.95 63.42-21.66 65.52-20.36 67.18-18.73 68.84-17.09 69.87-15.14 70.89-13.18 70.89-10.79L70.89-10.79Q70.89-8.74 70.11-7.1 69.33-5.47 68.04-4.27 66.74-3.08 65.03-2.22 63.33-1.37 61.54-0.85 59.76-0.34 57.95-0.1 56.15 0.15 54.58 0.15L54.58 0.15Q54.24 0.15 53.41 0.12 52.58 0.1 51.7 0.05 50.83 0 50.12-0.02 49.41-0.05 49.36-0.05L49.36-0.05 49.26-1.86ZM50.19-24.61L50.19-24.61Q50.19-24.51 50.19-24.22 50.19-23.93 50.21-23.56 50.24-23.19 50.24-22.9 50.24-22.61 50.24-22.46L50.24-22.46Q50.29-21.73 50.36-20.12 50.43-18.51 50.51-16.46 50.58-14.4 50.7-12.18 50.83-9.96 50.92-7.93 51.02-5.91 51.09-4.27 51.17-2.64 51.17-1.86L51.17-1.86Q51.46-1.86 52.12-1.83 52.78-1.81 53.51-1.78 54.24-1.76 54.9-1.73 55.56-1.71 55.85-1.71L55.85-1.71Q58.1-1.71 60.3-2.27 62.5-2.83 64.23-3.98 65.96-5.13 67.06-6.96 68.16-8.79 68.16-11.38L68.16-11.38Q68.16-13.28 67.28-15.01 66.4-16.75 64.96-18.21 63.52-19.68 61.66-20.85 59.81-22.02 57.83-22.88 55.85-23.73 53.88-24.17 51.9-24.61 50.19-24.61ZM72.99-8.94L72.99-8.94Q72.99-10.06 73.19-11.55 73.38-13.04 73.82-14.55 74.26-16.06 74.92-17.53 75.58-18.99 76.51-20.14 77.43-21.29 78.65-22 79.88-22.71 81.39-22.71L81.39-22.71Q82.95-22.71 84.29-21.63 85.64-20.56 86.59-18.85 87.54-17.14 88.03-15.04 88.52-12.94 88.42-10.94L88.42-10.94Q88.42-8.01 87.3-5.71 86.17-3.42 84.44-2 82.71-0.59 80.73-0.1 78.75 0.39 77.02-0.37 75.29-1.12 74.14-3.22 72.99-5.32 72.99-8.94ZM74.8-8.74L74.8-8.74Q74.94-5.76 75.82-4.15 76.7-2.54 77.95-2.03 79.19-1.51 80.66-2 82.12-2.49 83.39-3.74 84.66-4.98 85.56-6.86 86.47-8.74 86.56-11.08L86.56-11.08Q86.66-12.84 86.3-14.5 85.93-16.16 85.27-17.46 84.61-18.75 83.66-19.51 82.71-20.26 81.49-20.26L81.49-20.26Q80.31-20.26 79.39-19.68 78.46-19.09 77.7-18.09 76.95-17.09 76.41-15.82 75.87-14.55 75.51-13.28 75.14-12.01 74.97-10.82 74.8-9.62 74.8-8.74ZM90.86-8.35L90.86-8.35Q90.86-10.16 91.45-12.35 92.03-14.55 93.15-16.43 94.28-18.31 95.94-19.58 97.6-20.85 99.79-20.85L99.79-20.85Q100.92-21 101.6-20.63 102.28-20.26 102.65-19.48 103.02-18.7 103.14-17.7 103.26-16.7 103.29-15.65 103.31-14.6 103.29-13.7 103.26-12.79 103.36-12.21L103.36-12.21 102.14-12.21Q102.09-12.5 101.97-13.6 101.85-14.7 101.55-15.87 101.26-17.04 100.75-17.97 100.23-18.9 99.31-18.9L99.31-18.9Q97.94-18.9 96.74-17.82 95.55-16.75 94.67-15.23 93.79-13.72 93.25-12.11 92.71-10.5 92.71-9.42L92.71-9.42Q92.76-8.2 93.06-6.76 93.35-5.32 94.01-4.15 94.67-2.98 95.74-2.25 96.82-1.51 98.38-1.81L98.38-1.81Q99.55-1.81 100.62-2.29 101.7-2.78 102.72-3.32 103.75-3.86 104.8-4.35 105.85-4.83 107.02-4.83L107.02-4.83Q107.02-3.56 106.09-2.61 105.17-1.66 103.82-1.07 102.48-0.49 100.99-0.2 99.5 0.1 98.48 0.1L98.48 0.1Q96.82 0.1 95.42-0.59 94.03-1.27 93.01-2.42 91.98-3.56 91.42-5.1 90.86-6.64 90.86-8.35Z" opacity="1" transform="matrix(1,0,0,1,0,0)" fill="black" class="wordmark-text-0" id="SvgjsPath6349"></path></svg></g></svg></g></svg></g></svg></g><g transform="matrix(1,0,0,1,427.83308338658077,0)"><svg viewBox="0 0 189.16230891854582 189.16230891854582" height="189.16230891854582" width="189.16230891854582"><g data-palette-color="url(#4d5d2943-64f3-446d-974d-c3ac2ab1c3ca)"><rect width="51.704364437735855" height="189.16230891854582" fill="black" stroke="transparent" x="0" fill-opacity="1"></rect><rect width="51.704364437735855" height="189.16230891854582" fill="black" stroke="transparent" x="63.054102972848604" fill-opacity="0.75"></rect><rect width="51.704364437735855" height="189.16230891854582" fill="black" stroke="transparent" x="126.10820594569721" fill-opacity="0.5"></rect></g></svg></g></svg></g><defs><mask></mask></defs></svg><rect width="395.52" height="121.26099701318886" fill="black" stroke="none" visibility="hidden"></rect></g></mask></svg><rect width="395.52" height="121.26099701318886" fill="black" stroke="none" visibility="hidden"></rect></g></mask><linearGradient x1="0" x2="1" y1="0.548" y2="0.55" id="4d5d2943-64f3-446d-974d-c3ac2ab1c3ca"><stop stop-color="#ff6cab" offset="0"></stop><stop stop-color="#7366ff" offset="1"></stop></linearGradient><rect width="395.52" height="121.26099701318886" fill="#ffffff" mask="url(#7f2ea082-0268-4901-9b9d-07be79926f8e)" data-fill-palette-color="accent"></rect></svg><rect width="395.52" height="121.26099701318886" fill="none" stroke="none" visibility="hidden"></rect></g></svg></g></svg>