<svg xmlns="http://www.w3.org/2000/svg" version="1.1" xmlns:xlink="http://www.w3.org/1999/xlink" xmlns:svgjs="http://svgjs.dev/svgjs" width="2000" height="1500" viewBox="0 0 2000 1500"><rect width="2000" height="1500" fill="#ffffff"></rect><g transform="matrix(0.75,0,0,0.75,250.8934778739898,133.25072050693916)"><svg viewBox="0 0 300 247" data-background-color="#3a3d53" preserveAspectRatio="xMidYMid meet" height="1646" width="2000" xmlns="http://www.w3.org/2000/svg" xmlns:xlink="http://www.w3.org/1999/xlink"><g id="tight-bounds" transform="matrix(1,0,0,1,-0.17840042624541752,-0.099973655792013)"><svg viewBox="0 0 300.3570548576941 247.2" height="247.2" width="300.3570548576941"><g><svg viewBox="0 0 300.35705485769415 247.20000000000002" height="247.2" width="300.3570548576941"><g><svg viewBox="0 0 300.35705485769415 247.20000000000002" height="247.20000000000002" width="300.35705485769415"><g id="textblocktransform"><svg viewBox="0 0 300.35705485769415 247.20000000000002" height="247.20000000000002" width="300.35705485769415" id="textblock"><g><svg viewBox="0 0 300.35705485769415 247.20000000000002" height="247.20000000000002" width="300.35705485769415"><path d="M299.654 53.02C298.242 27.36 294.217 20.227 294.217 20.227 281.862-6.202 266.443-0.506 252.59 3.292 228.134 3.446 203.776 9.091 179.376 12.119 128.161 12.581 76.509 4.986 25.548 23.717 20.761 29.464-4.966 24.846 0.851 56.304 2.376 69.39 7.94 83.913 7.77 95.922 8.533 98.026 9.592 93.202 10.044 96.23 11.625 104.39 14.209 100.541 16.327 105.365 13.376 118.246 15.494 128.971 17.514 140.21 13.955 143.135 9.394 141.749 7.347 151.449 7.135 158.479 5.991 157.145 4.735 156.837 3.817 156.632 1.967 157.402 2.278 159.608 3.337 167.152-1.21 171.514 1.642 178.904-0.321 186.91 2.998 193.838 2.546 202.511 2.489 204.255 2.8 205.744 3.294 206.154 5.483 208.361 2.292 212.672 2.631 217.342 25.082 249.262 49.44 227.195 72.442 241.872 78.415 231.608 73.925 245.516 76.311 243.36 78.175 240.846 79.53 251.263 81.634 245.362 81.959 243.668 81.465 239.665 82.623 240.435 83.23 240.846 83.767 240.743 83.851 238.382 83.978 234.841 82.863 237.048 82.566 235.201 85.772 225.861 84.981 248.081 87.989 247.158 87.847 244.438 86.972 240.538 88.765 241.051 90.544 237.151 90.601 233.918 92.182 242.693 92.239 244.592 92.521 245.926 92.973 246.85 97.915 237.305 102.829 250.237 108.011 245.926 111.188 241.205 114.238 248.492 117.458 246.696 118.588 245.259 119.731 242.693 120.819 247.004 134.134 247.928 148.325 244.079 160.949 247.158 194.683 241.41 230.732 249.518 266.301 241.923 274.689 238.998 283.401 234.841 291.577 231.506 291.577 231.506 298.199 222.371 298.199 181.316S299.611 145.393 299.823 112.703C300.035 80.013 301.024 78.679 299.611 53.02Z" opacity="1" fill="#000000" data-fill-palette-color="tertiary"></path><g transform="matrix(1,0,0,1,55.76832,26.230666666666668)"><svg width="188.82041485769415" viewBox="2.35 -34.55 33.5 34.55" height="194.7386666666667" data-palette-color="#3a3d53"><path d="M33.3-18.3Q35.85-18.25 35.85-16.1L35.85-16.1Q35.85-15.05 35.2-14.43 34.55-13.8 33.45-13.85L33.45-13.85 32.65-13.85Q32.3-7.2 29-3.6 25.7 0 19.55 0L19.55 0Q14.5 0 10.58-2.33 6.65-4.65 4.5-8.63 2.35-12.6 2.35-17.35L2.35-17.35Q2.35-22.1 4.48-26.05 6.6-30 10.35-32.27 14.1-34.55 18.75-34.55L18.75-34.55Q22.35-34.55 24.88-33.25 27.4-31.95 28.85-30.1L28.85-30.1 28.85-31.15Q28.85-32.05 29.48-32.6 30.1-33.15 31.25-33.15L31.25-33.15Q32.35-33.15 32.98-32.65 33.6-32.15 33.6-31.4L33.6-31.4Q33.7-27.65 33-26.35L33-26.35Q32.4-25.1 30.6-25.1L30.6-25.1Q29.9-25.1 29.35-25.38 28.8-25.65 27.95-26.4L27.95-26.4Q26.65-27.6 25.68-28.3 24.7-29 23.25-29.5 21.8-30 19.8-30L19.8-30Q16.15-30 13.33-28.33 10.5-26.65 8.93-23.73 7.35-20.8 7.35-17.25L7.35-17.25Q7.35-13.7 8.93-10.8 10.5-7.9 13.25-6.23 16-4.55 19.45-4.55L19.45-4.55Q27.25-4.55 27.85-13.9L27.85-13.9 21.45-14Q20.2-14.05 19.63-14.65 19.05-15.25 19.05-16.2L19.05-16.2Q19.05-17.35 19.75-17.98 20.45-18.6 21.55-18.55L21.55-18.55 33.3-18.3Z" opacity="1" transform="matrix(1,0,0,1,0,0)" fill="#ffffff" class="wordmark-text-0" data-fill-palette-color="quaternary" id="text-0"></path></svg></g></svg></g></svg></g></svg></g><g></g></svg></g><defs></defs></svg><rect width="300.3570548576941" height="247.2" fill="none" stroke="none" visibility="hidden"></rect></g></svg></g></svg>